<svg width="93" height="63" viewBox="0 0 93 63" fill="none" xmlns="http://www.w3.org/2000/svg">
<path d="M43.5 15.25C42.9167 16.5833 42.3958 17.75 41.9375 18.75C41.4792 19.75 41.0833 20.6042 40.75 21.3125C40.375 22.1042 40.0625 22.8125 39.8125 23.4375C39.6042 23.8958 39.3333 24.5208 39 25.3125C38.6667 26.0208 38.25 26.9583 37.75 28.125C37.2917 29.25 36.6875 30.7083 35.9375 32.5C35.5625 30.9583 35.1042 29.6042 34.5625 28.4375C34.0208 27.2708 33.4375 26.25 32.8125 25.375C32.1875 24.5 31.5208 23.7917 30.8125 23.25C30.1458 22.6667 29.4792 22.1875 28.8125 21.8125C27.2708 20.9792 25.6458 20.5208 23.9375 20.4375C21.6875 20.5625 19.9167 20.9375 18.625 21.5625C17.375 22.1458 16.4583 22.8333 15.875 23.625C15.2917 24.375 14.9792 25.1667 14.9375 26C14.8958 26.7917 15 27.4583 15.25 28C15.4583 28.5 16.1875 29.0833 17.4375 29.75C18.7292 30.4167 20.2708 31.1875 22.0625 32.0625C23.8958 32.8958 25.8542 33.8542 27.9375 34.9375C30.0208 35.9792 31.9375 37.1458 33.6875 38.4375C35.4792 39.6875 36.9792 41.0625 38.1875 42.5625C39.4375 44.0208 40.125 45.5833 40.25 47.25C40.375 49.375 40.3542 51.2917 40.1875 53C40.0208 54.7083 39.4375 56.1667 38.4375 57.375C37.4375 58.5833 35.875 59.5417 33.75 60.25C31.6667 60.9583 28.7708 61.3958 25.0625 61.5625C21.2292 61.7292 18.0833 61.5208 15.625 60.9375C13.1667 60.3542 11.1667 59.5625 9.625 58.5625C8.125 57.5625 7 56.4583 6.25 55.25C5.54167 54.0417 5.02083 52.8958 4.6875 51.8125C4.35417 50.6875 4.125 49.7292 4 48.9375C3.875 48.1042 3.66667 47.6042 3.375 47.4375C3.04167 47.2292 2.70833 47.0417 2.375 46.875C2.08333 46.7083 1.77083 46.5625 1.4375 46.4375C1.10417 46.2708 0.770833 46.125 0.4375 46L18.625 43.0625C17.5833 43.8958 16.7708 44.6667 16.1875 45.375C15.6458 46.0833 15.2292 46.7083 14.9375 47.25C14.6042 47.875 14.375 48.4583 14.25 49C14.1667 49.5833 14.3542 50.3125 14.8125 51.1875C15.2708 52.0625 15.8958 52.9167 16.6875 53.75C17.5208 54.5417 18.4792 55.2083 19.5625 55.75C20.6458 56.2917 21.7708 56.5208 22.9375 56.4375C24.3958 56.3125 25.5833 55.9583 26.5 55.375C27.4167 54.75 28.1042 53.9792 28.5625 53.0625C29.0625 52.1458 29.3542 51.1458 29.4375 50.0625C29.5208 48.9792 29.4167 47.9167 29.125 46.875C28.875 45.7917 28.4583 44.7917 27.875 43.875C27.2917 42.9167 26.6042 42.125 25.8125 41.5C25.1042 41 24 40.5208 22.5 40.0625C21.0417 39.6042 19.3958 39.1042 17.5625 38.5625C15.7708 38.0208 13.9167 37.3958 12 36.6875C10.125 35.9792 8.41667 35.1042 6.875 34.0625C5.375 33.0208 4.16667 31.7917 3.25 30.375C2.375 28.9583 2.04167 27.25 2.25 25.25C2.41667 23.5417 2.95833 22.125 3.875 21C4.83333 19.8333 6.02083 18.9167 7.4375 18.25C8.89583 17.5417 10.5 17.0208 12.25 16.6875C14.0417 16.3542 15.8542 16.1667 17.6875 16.125C19.5625 16.0417 21.3958 16.0625 23.1875 16.1875C25.0208 16.3125 26.6667 16.4583 28.125 16.625C29.5833 16.7917 30.8125 16.9583 31.8125 17.125C32.8542 17.25 33.5 17.3333 33.75 17.375C34.8333 17.4583 35.9167 17.4375 37 17.3125C37.9583 17.2292 39 17.0417 40.125 16.75C41.2917 16.4167 42.4167 15.9167 43.5 15.25Z" fill="url(#paint0_linear_28_2590)"/>
<path d="M34 29.0156C34.3125 29.0781 34.5781 29.125 34.7969 29.1562C35.0156 29.1875 35.1979 29.2135 35.3438 29.2344C35.5104 29.2552 35.651 29.2656 35.7656 29.2656C35.8802 29.2656 36.0365 29.2604 36.2344 29.25C36.4115 29.2396 36.6354 29.2344 36.9062 29.2344C37.1771 29.224 37.5208 29.2083 37.9375 29.1875C37.6979 29.3542 37.5052 29.4948 37.3594 29.6094C37.2135 29.724 37.1042 29.8229 37.0312 29.9062C36.9375 30 36.8802 30.0781 36.8594 30.1406C36.8385 30.1823 36.8177 30.3385 36.7969 30.6094C36.776 30.8698 36.7552 31.2031 36.7344 31.6094C36.724 32.0052 36.724 32.4531 36.7344 32.9531C36.7448 33.4427 36.7708 33.9427 36.8125 34.4531C36.8646 34.9635 36.9375 35.4583 37.0312 35.9375C37.125 36.4062 37.25 36.8177 37.4062 37.1719C37.5729 37.526 37.7708 37.8021 38 38C38.2396 38.1979 38.526 38.2708 38.8594 38.2188C39.2969 38.1562 39.651 37.9427 39.9219 37.5781C40.1927 37.2135 40.3958 36.7708 40.5312 36.25C40.6771 35.7292 40.7656 35.1719 40.7969 34.5781C40.8385 33.974 40.8438 33.4115 40.8125 32.8906C40.7917 32.3594 40.75 31.901 40.6875 31.5156C40.625 31.1302 40.5677 30.8906 40.5156 30.7969C40.4531 30.6927 40.3698 30.5729 40.2656 30.4375C40.1823 30.3229 40.0729 30.1927 39.9375 30.0469C39.8021 29.8906 39.6458 29.724 39.4688 29.5469C39.7917 29.5573 40.0833 29.5677 40.3438 29.5781C40.6042 29.5781 40.8229 29.5833 41 29.5938C41.2083 29.6042 41.3958 29.6146 41.5625 29.625C41.7292 29.6354 41.9375 29.651 42.1875 29.6719C42.3958 29.6927 42.6615 29.7135 42.9844 29.7344C43.3177 29.7552 43.7135 29.7865 44.1719 29.8281C43.9948 29.8698 43.849 29.9271 43.7344 30C43.6302 30.0729 43.5469 30.151 43.4844 30.2344C43.4115 30.3281 43.3594 30.4219 43.3281 30.5156C43.2969 30.599 43.2708 30.849 43.25 31.2656C43.2396 31.6719 43.2188 32.1667 43.1875 32.75C43.1667 33.3229 43.1302 33.9479 43.0781 34.625C43.026 35.2917 42.9427 35.9271 42.8281 36.5312C42.724 37.1354 42.5833 37.6719 42.4062 38.1406C42.2396 38.6094 42.0208 38.9323 41.75 39.1094C41.3542 39.3698 40.9375 39.5573 40.5 39.6719C40.0625 39.776 39.6198 39.8333 39.1719 39.8438C38.724 39.8438 38.2812 39.8073 37.8438 39.7344C37.4167 39.651 37.0052 39.5521 36.6094 39.4375C36.2031 39.3125 35.8646 39.0312 35.5938 38.5938C35.3333 38.1562 35.125 37.6406 34.9688 37.0469C34.8229 36.4427 34.7135 35.7969 34.6406 35.1094C34.5781 34.4115 34.5365 33.7396 34.5156 33.0938C34.5052 32.4479 34.5052 31.8646 34.5156 31.3438C34.5365 30.8125 34.5521 30.4115 34.5625 30.1406C34.5625 30.0052 34.5417 29.875 34.5 29.75C34.4688 29.6354 34.4115 29.5156 34.3281 29.3906C34.2552 29.2552 34.1458 29.1302 34 29.0156ZM43.3594 28.5938C43.6927 28.6458 43.9948 28.6927 44.2656 28.7344C44.5365 28.7656 44.7708 28.7917 44.9688 28.8125C45.1979 28.8438 45.401 28.8698 45.5781 28.8906C45.7969 28.9219 46.125 28.8854 46.5625 28.7812C47 28.6667 47.4792 28.5625 48 28.4688C48.5312 28.3646 49.0729 28.3073 49.625 28.2969C50.1771 28.276 50.6823 28.375 51.1406 28.5938C51.599 28.8125 51.974 29.0312 52.2656 29.25C52.5573 29.4688 52.7865 29.7031 52.9531 29.9531C53.1302 30.1927 53.2552 30.4479 53.3281 30.7188C53.401 30.9896 53.4427 31.2865 53.4531 31.6094C53.4427 32.0885 53.3281 32.5521 53.1094 33C53.0156 33.1875 52.8906 33.3854 52.7344 33.5938C52.5885 33.7917 52.4062 33.9844 52.1875 34.1719C51.9688 34.3594 51.7083 34.5365 51.4062 34.7031C51.1146 34.8698 50.7708 35.0156 50.375 35.1406C50.7604 35.2552 51.0781 35.3906 51.3281 35.5469C51.5885 35.7031 51.7969 35.849 51.9531 35.9844C52.1406 36.151 52.2812 36.3125 52.375 36.4688C52.4896 36.6875 52.5677 36.875 52.6094 37.0312C52.651 37.1875 52.6771 37.3385 52.6875 37.4844C52.7083 37.6198 52.7344 37.7604 52.7656 37.9062C52.7969 38.0521 52.8646 38.2188 52.9688 38.4062C53.0521 38.5521 53.151 38.7031 53.2656 38.8594C53.3698 38.9948 53.4896 39.1406 53.625 39.2969C53.7708 39.4531 53.9479 39.6042 54.1562 39.75C53.8646 39.7604 53.5938 39.7656 53.3438 39.7656C53.1042 39.7656 52.8958 39.7656 52.7188 39.7656C52.5104 39.7656 52.3125 39.7604 52.125 39.75C51.9375 39.7396 51.7031 39.7344 51.4219 39.7344C51.1823 39.7344 50.875 39.7344 50.5 39.7344C50.1354 39.7344 49.6927 39.7396 49.1719 39.75C49.401 39.5729 49.5885 39.3958 49.7344 39.2188C49.8802 39.0417 49.9948 38.8802 50.0781 38.7344C50.1719 38.5677 50.2396 38.4062 50.2812 38.25C50.3333 37.9688 50.3385 37.6771 50.2969 37.375C50.2656 37.1146 50.1823 36.8281 50.0469 36.5156C49.9115 36.1927 49.6927 35.8698 49.3906 35.5469C49.0885 35.599 48.8333 35.6406 48.625 35.6719C48.4271 35.6927 48.2552 35.7135 48.1094 35.7344C47.9427 35.7552 47.8073 35.7708 47.7031 35.7812C47.6094 35.7917 47.5052 35.8021 47.3906 35.8125C47.2969 35.8229 47.1927 35.8385 47.0781 35.8594C46.974 35.8698 46.875 35.8854 46.7812 35.9062C46.7604 36.3542 46.7604 36.7448 46.7812 37.0781C46.8021 37.401 46.8281 37.6719 46.8594 37.8906C46.901 38.151 46.9479 38.375 47 38.5625C47.0521 38.75 47.125 38.9323 47.2188 39.1094C47.2917 39.2552 47.3854 39.4115 47.5 39.5781C47.6146 39.7344 47.7448 39.8646 47.8906 39.9688C47.6198 39.9688 47.3594 39.9688 47.1094 39.9688C46.8698 39.9688 46.651 39.9635 46.4531 39.9531C46.224 39.9531 46.0052 39.9479 45.7969 39.9375C45.5885 39.9271 45.3542 39.9219 45.0938 39.9219C44.875 39.9219 44.6146 39.9219 44.3125 39.9219C44.0208 39.9219 43.7031 39.9271 43.3594 39.9375C43.6302 39.6562 43.8438 39.4167 44 39.2188C44.1562 39.0208 44.276 38.8542 44.3594 38.7188C44.4531 38.5729 44.5104 38.4479 44.5312 38.3438C44.5521 38.1771 44.5677 37.8802 44.5781 37.4531C44.599 37.0156 44.6146 36.5156 44.625 35.9531C44.6354 35.3906 44.6406 34.8021 44.6406 34.1875C44.6406 33.5729 44.6354 33 44.625 32.4688C44.6146 31.9271 44.6042 31.4635 44.5938 31.0781C44.5833 30.6927 44.5729 30.4479 44.5625 30.3438C44.5312 30.1562 44.4635 29.9688 44.3594 29.7812C44.276 29.6146 44.1562 29.4271 44 29.2188C43.8438 29.0104 43.6302 28.8021 43.3594 28.5938ZM49.2656 34.0938C49.3698 34.0312 49.4583 33.9688 49.5312 33.9062C49.6042 33.8438 49.6667 33.7448 49.7188 33.6094C49.7708 33.4635 49.8125 33.2604 49.8438 33C49.8854 32.7396 49.9323 32.3854 49.9844 31.9375C50.026 31.4896 49.9948 31.1198 49.8906 30.8281C49.7969 30.5365 49.6667 30.3073 49.5 30.1406C49.3438 29.9635 49.1667 29.8438 48.9688 29.7812C48.7812 29.7083 48.6146 29.6719 48.4688 29.6719C48.1771 29.6719 47.8906 29.7604 47.6094 29.9375C47.3281 30.1146 47.1146 30.3542 46.9688 30.6562C46.9167 30.7917 46.8698 31.0156 46.8281 31.3281C46.7969 31.599 46.776 31.974 46.7656 32.4531C46.7552 32.9323 46.7708 33.5625 46.8125 34.3438C47.2083 34.4062 47.5573 34.4323 47.8594 34.4219C48.1615 34.401 48.4167 34.3646 48.625 34.3125C48.875 34.2604 49.0885 34.1875 49.2656 34.0938ZM53.2812 28.8125C53.6771 28.9062 54.0312 28.9792 54.3438 29.0312C54.6667 29.0729 54.9375 29.1042 55.1562 29.125C55.4167 29.1562 55.6458 29.1667 55.8438 29.1562C56.0938 29.1458 56.4062 29.1094 56.7812 29.0469C57.1562 28.9844 57.5521 28.9219 57.9688 28.8594C58.3854 28.7969 58.7969 28.7448 59.2031 28.7031C59.6094 28.6615 59.9635 28.6562 60.2656 28.6875C60.5677 28.7188 60.8854 28.7917 61.2188 28.9062C61.5521 29.0104 61.8646 29.1562 62.1562 29.3438C62.4479 29.5208 62.6979 29.7396 62.9062 30C63.125 30.2604 63.2604 30.5625 63.3125 30.9062C63.3646 31.2396 63.3333 31.599 63.2188 31.9844C63.1042 32.3594 62.9219 32.7292 62.6719 33.0938C62.4219 33.4479 62.1094 33.776 61.7344 34.0781C61.3594 34.3802 60.9427 34.625 60.4844 34.8125C60.1198 34.9479 59.724 35.0521 59.2969 35.125C58.9323 35.1875 58.5052 35.2292 58.0156 35.25C57.5365 35.2604 57.026 35.2083 56.4844 35.0938C56.4115 35.3958 56.3698 35.6771 56.3594 35.9375C56.3594 36.1875 56.3698 36.4115 56.3906 36.6094C56.4219 36.8385 56.4635 37.0469 56.5156 37.2344C56.5781 37.4219 56.6562 37.6406 56.75 37.8906C56.8333 38.099 56.9271 38.3542 57.0312 38.6562C57.1458 38.9479 57.2812 39.276 57.4375 39.6406C57.25 39.6406 57.0677 39.6458 56.8906 39.6562C56.7135 39.6562 56.5521 39.6615 56.4062 39.6719C56.2396 39.6823 56.0833 39.6927 55.9375 39.7031C55.7708 39.7135 55.5833 39.7344 55.375 39.7656C55.1979 39.7865 54.974 39.8177 54.7031 39.8594C54.4427 39.901 54.1458 39.9531 53.8125 40.0156C54.0312 39.7031 54.2031 39.4167 54.3281 39.1562C54.4635 38.8854 54.5625 38.651 54.625 38.4531C54.6979 38.224 54.7448 38.0156 54.7656 37.8281C54.776 37.6719 54.776 37.3958 54.7656 37C54.7656 36.6042 54.7604 36.1458 54.75 35.625C54.7396 35.1042 54.724 34.5573 54.7031 33.9844C54.6823 33.4115 54.6562 32.875 54.625 32.375C54.5938 31.8646 54.5573 31.4271 54.5156 31.0625C54.4844 30.6979 54.4531 30.4583 54.4219 30.3438C54.3802 30.2083 54.3073 30.0625 54.2031 29.9062C54.1198 29.7708 54 29.6146 53.8438 29.4375C53.6979 29.25 53.5104 29.0417 53.2812 28.8125ZM56.5156 31.8906C56.5052 31.9948 56.5 32.1042 56.5 32.2188C56.5 32.4375 56.5156 32.7188 56.5469 33.0625C56.6198 33.2396 56.7083 33.3854 56.8125 33.5C56.9271 33.6146 57.0469 33.7031 57.1719 33.7656C57.3073 33.8281 57.4427 33.8698 57.5781 33.8906C57.7135 33.9115 57.849 33.9219 57.9844 33.9219C58.2969 33.9115 58.625 33.8385 58.9688 33.7031C59.4271 33.5052 59.75 33.224 59.9375 32.8594C60.125 32.4948 60.224 32.1198 60.2344 31.7344C60.2448 31.349 60.1771 30.9948 60.0312 30.6719C59.8958 30.349 59.7292 30.1302 59.5312 30.0156C59.3646 29.9427 59.151 29.9115 58.8906 29.9219C58.6615 29.9323 58.375 29.9896 58.0312 30.0938C57.6875 30.1979 57.2656 30.3854 56.7656 30.6562C56.7135 30.8438 56.6719 31.0104 56.6406 31.1562C56.6094 31.3021 56.5833 31.4323 56.5625 31.5469C56.5417 31.6719 56.526 31.7865 56.5156 31.8906ZM63.4844 28.6719C63.7865 28.724 64.0521 28.7604 64.2812 28.7812C64.5208 28.8021 64.7188 28.8177 64.875 28.8281C65.0625 28.8385 65.224 28.8438 65.3594 28.8438C65.4948 28.8438 65.6875 28.8333 65.9375 28.8125C66.1458 28.7917 66.4167 28.7656 66.75 28.7344C67.0938 28.7031 67.5156 28.651 68.0156 28.5781C67.8698 28.6198 67.7344 28.7396 67.6094 28.9375C67.4948 29.125 67.3906 29.3281 67.2969 29.5469C67.1823 29.8073 67.0833 30.0938 67 30.4062C66.9271 30.6875 66.8333 31.0729 66.7188 31.5625C66.6146 32.0521 66.5104 32.5833 66.4062 33.1562C66.3125 33.7292 66.2396 34.3125 66.1875 34.9062C66.1354 35.4896 66.125 36.026 66.1562 36.5156C66.1979 37.0052 66.2969 37.4115 66.4531 37.7344C66.6094 38.0469 66.849 38.2135 67.1719 38.2344C67.6615 38.276 68.0677 38.2812 68.3906 38.25C68.724 38.2083 68.9948 38.151 69.2031 38.0781C69.4115 38.0052 69.5729 37.9219 69.6875 37.8281C69.8021 37.724 69.8906 37.625 69.9531 37.5312C70.1198 37.2917 70.2917 36.9844 70.4688 36.6094C70.6458 36.2344 70.8021 35.875 70.9375 35.5312C71.0833 35.1875 71.2031 34.8958 71.2969 34.6562C71.3906 34.4167 71.4375 34.3021 71.4375 34.3125C71.4375 34.3333 71.4323 34.4531 71.4219 34.6719C71.4219 34.8802 71.4167 35.1354 71.4062 35.4375C71.4062 35.7292 71.401 36.0365 71.3906 36.3594C71.3906 36.6823 71.3854 36.9583 71.375 37.1875C71.3646 37.375 71.3542 37.5833 71.3438 37.8125C71.3333 38.0104 71.3229 38.2448 71.3125 38.5156C71.3125 38.7865 71.3021 39.0833 71.2812 39.4062C70.8438 39.375 70.4271 39.3542 70.0312 39.3438C69.6354 39.3333 69.2865 39.3281 68.9844 39.3281C68.6302 39.3281 68.3021 39.3333 68 39.3438C67.6771 39.3542 67.3021 39.3698 66.875 39.3906C66.5104 39.4115 66.0573 39.4375 65.5156 39.4688C64.974 39.4896 64.349 39.5208 63.6406 39.5625C63.724 39.4167 63.7917 39.2812 63.8438 39.1562C63.9062 39.0312 63.9531 38.9271 63.9844 38.8438C64.026 38.7396 64.0521 38.651 64.0625 38.5781C64.125 38.2448 64.1771 37.8229 64.2188 37.3125C64.2604 36.7917 64.2917 36.2396 64.3125 35.6562C64.3438 35.0729 64.3594 34.4792 64.3594 33.875C64.3698 33.2604 64.3698 32.6927 64.3594 32.1719C64.349 31.651 64.3281 31.1979 64.2969 30.8125C64.276 30.4271 64.2448 30.1615 64.2031 30.0156C64.151 29.849 64.0885 29.6823 64.0156 29.5156C63.9531 29.3698 63.875 29.224 63.7812 29.0781C63.6979 28.9219 63.599 28.7865 63.4844 28.6719ZM71.5938 29.0156C71.9062 29.0781 72.1719 29.125 72.3906 29.1562C72.6094 29.1875 72.7917 29.2135 72.9375 29.2344C73.1042 29.2552 73.2448 29.2656 73.3594 29.2656C73.474 29.2656 73.6302 29.2604 73.8281 29.25C74.0052 29.2396 74.2292 29.2344 74.5 29.2344C74.7708 29.224 75.1146 29.2083 75.5312 29.1875C75.2917 29.3542 75.099 29.4948 74.9531 29.6094C74.8073 29.724 74.6979 29.8229 74.625 29.9062C74.5312 30 74.474 30.0781 74.4531 30.1406C74.4323 30.1823 74.4115 30.3385 74.3906 30.6094C74.3698 30.8698 74.349 31.2031 74.3281 31.6094C74.3177 32.0052 74.3177 32.4531 74.3281 32.9531C74.3385 33.4427 74.3646 33.9427 74.4062 34.4531C74.4583 34.9635 74.5312 35.4583 74.625 35.9375C74.7188 36.4062 74.8438 36.8177 75 37.1719C75.1667 37.526 75.3646 37.8021 75.5938 38C75.8333 38.1979 76.1198 38.2708 76.4531 38.2188C76.8906 38.1562 77.2448 37.9427 77.5156 37.5781C77.7865 37.2135 77.9896 36.7708 78.125 36.25C78.2708 35.7292 78.3594 35.1719 78.3906 34.5781C78.4323 33.974 78.4375 33.4115 78.4062 32.8906C78.3854 32.3594 78.3438 31.901 78.2812 31.5156C78.2188 31.1302 78.1615 30.8906 78.1094 30.7969C78.0469 30.6927 77.9635 30.5729 77.8594 30.4375C77.776 30.3229 77.6667 30.1927 77.5312 30.0469C77.3958 29.8906 77.2396 29.724 77.0625 29.5469C77.3854 29.5573 77.6771 29.5677 77.9375 29.5781C78.1979 29.5781 78.4167 29.5833 78.5938 29.5938C78.8021 29.6042 78.9896 29.6146 79.1562 29.625C79.3229 29.6354 79.5312 29.651 79.7812 29.6719C79.9896 29.6927 80.2552 29.7135 80.5781 29.7344C80.9115 29.7552 81.3073 29.7865 81.7656 29.8281C81.5885 29.8698 81.4427 29.9271 81.3281 30C81.224 30.0729 81.1406 30.151 81.0781 30.2344C81.0052 30.3281 80.9531 30.4219 80.9219 30.5156C80.8906 30.599 80.8646 30.849 80.8438 31.2656C80.8333 31.6719 80.8125 32.1667 80.7812 32.75C80.7604 33.3229 80.724 33.9479 80.6719 34.625C80.6198 35.2917 80.5365 35.9271 80.4219 36.5312C80.3177 37.1354 80.1771 37.6719 80 38.1406C79.8333 38.6094 79.6146 38.9323 79.3438 39.1094C78.9479 39.3698 78.5312 39.5573 78.0938 39.6719C77.6562 39.776 77.2135 39.8333 76.7656 39.8438C76.3177 39.8438 75.875 39.8073 75.4375 39.7344C75.0104 39.651 74.599 39.5521 74.2031 39.4375C73.7969 39.3125 73.4583 39.0312 73.1875 38.5938C72.9271 38.1562 72.7188 37.6406 72.5625 37.0469C72.4167 36.4427 72.3073 35.7969 72.2344 35.1094C72.1719 34.4115 72.1302 33.7396 72.1094 33.0938C72.099 32.4479 72.099 31.8646 72.1094 31.3438C72.1302 30.8125 72.1458 30.4115 72.1562 30.1406C72.1562 30.0052 72.1354 29.875 72.0938 29.75C72.0625 29.6354 72.0052 29.5156 71.9219 29.3906C71.849 29.2552 71.7396 29.1302 71.5938 29.0156ZM91.6406 28.5625C91.4948 28.8958 91.3646 29.1875 91.25 29.4375C91.1354 29.6875 91.0365 29.901 90.9531 30.0781C90.8594 30.276 90.7812 30.4531 90.7188 30.6094C90.6667 30.724 90.599 30.8802 90.5156 31.0781C90.4323 31.2552 90.3281 31.4896 90.2031 31.7812C90.0885 32.0625 89.9375 32.4271 89.75 32.875C89.6562 32.4896 89.5417 32.151 89.4062 31.8594C89.2708 31.5677 89.125 31.3125 88.9688 31.0938C88.8125 30.875 88.6458 30.6979 88.4688 30.5625C88.3021 30.4167 88.1354 30.2969 87.9688 30.2031C87.5833 29.9948 87.1771 29.8802 86.75 29.8594C86.1875 29.8906 85.7448 29.9844 85.4219 30.1406C85.1094 30.2865 84.8802 30.4583 84.7344 30.6562C84.5885 30.8438 84.5104 31.0417 84.5 31.25C84.4896 31.4479 84.5156 31.6146 84.5781 31.75C84.6302 31.875 84.8125 32.0208 85.125 32.1875C85.4479 32.3542 85.8333 32.5469 86.2812 32.7656C86.7396 32.974 87.2292 33.2135 87.75 33.4844C88.2708 33.7448 88.75 34.0365 89.1875 34.3594C89.6354 34.6719 90.0104 35.0156 90.3125 35.3906C90.625 35.7552 90.7969 36.1458 90.8281 36.5625C90.8594 37.0938 90.8542 37.5729 90.8125 38C90.7708 38.4271 90.625 38.7917 90.375 39.0938C90.125 39.3958 89.7344 39.6354 89.2031 39.8125C88.6823 39.9896 87.9583 40.099 87.0312 40.1406C86.0729 40.1823 85.2865 40.1302 84.6719 39.9844C84.0573 39.8385 83.5573 39.6406 83.1719 39.3906C82.7969 39.1406 82.5156 38.8646 82.3281 38.5625C82.151 38.2604 82.0208 37.974 81.9375 37.7031C81.8542 37.4219 81.7969 37.1823 81.7656 36.9844C81.7344 36.776 81.6823 36.651 81.6094 36.6094C81.526 36.5573 81.4427 36.5104 81.3594 36.4688C81.2865 36.4271 81.2083 36.3906 81.125 36.3594C81.0417 36.3177 80.9583 36.2812 80.875 36.25L85.4219 35.5156C85.1615 35.724 84.9583 35.9167 84.8125 36.0938C84.6771 36.2708 84.5729 36.4271 84.5 36.5625C84.4167 36.7188 84.3594 36.8646 84.3281 37C84.3073 37.1458 84.3542 37.3281 84.4688 37.5469C84.5833 37.7656 84.7396 37.9792 84.9375 38.1875C85.1458 38.3854 85.3854 38.5521 85.6562 38.6875C85.9271 38.8229 86.2083 38.8802 86.5 38.8594C86.8646 38.8281 87.1615 38.7396 87.3906 38.5938C87.6198 38.4375 87.7917 38.2448 87.9062 38.0156C88.0312 37.7865 88.1042 37.5365 88.125 37.2656C88.1458 36.9948 88.1198 36.7292 88.0469 36.4688C87.9844 36.1979 87.8802 35.9479 87.7344 35.7188C87.5885 35.4792 87.4167 35.2812 87.2188 35.125C87.0417 35 86.7656 34.8802 86.3906 34.7656C86.026 34.651 85.6146 34.526 85.1562 34.3906C84.7083 34.2552 84.2448 34.099 83.7656 33.9219C83.2969 33.7448 82.8698 33.526 82.4844 33.2656C82.1094 33.0052 81.8073 32.6979 81.5781 32.3438C81.3594 31.9896 81.276 31.5625 81.3281 31.0625C81.3698 30.6354 81.5052 30.2812 81.7344 30C81.974 29.7083 82.2708 29.4792 82.625 29.3125C82.9896 29.1354 83.3906 29.0052 83.8281 28.9219C84.276 28.8385 84.7292 28.7917 85.1875 28.7812C85.6562 28.7604 86.1146 28.7656 86.5625 28.7969C87.0208 28.8281 87.4323 28.8646 87.7969 28.9062C88.1615 28.9479 88.4688 28.9896 88.7188 29.0312C88.9792 29.0625 89.1406 29.0833 89.2031 29.0938C89.474 29.1146 89.7448 29.1094 90.0156 29.0781C90.2552 29.0573 90.5156 29.0104 90.7969 28.9375C91.0885 28.8542 91.3698 28.7292 91.6406 28.5625Z" fill="#FE992D"/>
<path d="M40.0312 48.9219C40.5521 48.9531 40.9896 48.9792 41.3438 49C41.7083 49.0104 42.0104 49.0208 42.25 49.0312C42.5208 49.0417 42.75 49.0417 42.9375 49.0312C43.125 49.0208 43.3802 48.9948 43.7031 48.9531C43.974 48.9219 44.3333 48.875 44.7812 48.8125C45.2396 48.7396 45.8073 48.6458 46.4844 48.5312C46.2448 48.7708 46.0573 48.9896 45.9219 49.1875C45.7969 49.375 45.6979 49.5365 45.625 49.6719C45.5417 49.8385 45.4844 49.9792 45.4531 50.0938C45.4323 50.1979 45.4531 50.4583 45.5156 50.875C45.5781 51.2917 45.6667 51.7865 45.7812 52.3594C45.8958 52.9219 46.0208 53.526 46.1562 54.1719C46.2917 54.8073 46.4271 55.4062 46.5625 55.9688C46.6979 56.5208 46.8177 56.9948 46.9219 57.3906C47.0365 57.776 47.1198 58.0052 47.1719 58.0781C47.3281 58.2969 47.4271 58.4427 47.4688 58.5156C47.5104 58.5781 47.5833 58.6354 47.6875 58.6875C47.7292 58.7083 47.7969 58.7396 47.8906 58.7812C47.974 58.8229 48.0833 58.875 48.2188 58.9375C48.3646 59 48.5469 59.0729 48.7656 59.1562C48.3594 59.1771 48.0104 59.1927 47.7188 59.2031C47.4271 59.2031 47.1875 59.2083 47 59.2188C46.7812 59.2292 46.5938 59.2396 46.4375 59.25C46.2812 59.25 46.0938 59.2604 45.875 59.2812C45.6875 59.3021 45.4427 59.3229 45.1406 59.3438C44.849 59.3646 44.5052 59.3854 44.1094 59.4062C44.3177 59.2604 44.4844 59.1302 44.6094 59.0156C44.7448 58.8906 44.849 58.7865 44.9219 58.7031C45.0052 58.599 45.0625 58.5052 45.0938 58.4219C45.1146 58.3281 45.1302 58.1875 45.1406 58C45.151 57.8333 45.151 57.6146 45.1406 57.3438C45.1302 57.0625 45.1042 56.6979 45.0625 56.25L40.9531 56.6719C40.849 56.849 40.7708 57.0052 40.7188 57.1406C40.6667 57.2656 40.6302 57.375 40.6094 57.4688C40.5781 57.5833 40.5677 57.6771 40.5781 57.75C40.599 57.8333 40.6354 57.9323 40.6875 58.0469C40.7396 58.151 40.8125 58.276 40.9062 58.4219C41.0104 58.5573 41.1615 58.7188 41.3594 58.9062C41.099 58.8958 40.8333 58.8906 40.5625 58.8906C40.2917 58.8906 40.0417 58.8958 39.8125 58.9062C39.5417 58.9167 39.276 58.9271 39.0156 58.9375C38.7552 58.9479 38.4583 58.9635 38.125 58.9844C37.8438 59.0052 37.5156 59.0312 37.1406 59.0625C36.7552 59.0833 36.3438 59.1146 35.9062 59.1562C36.1771 59.0312 36.4062 58.9062 36.5938 58.7812C36.7812 58.6458 36.9375 58.5208 37.0625 58.4062C37.2083 58.2812 37.3333 58.1615 37.4375 58.0469C37.5104 57.9427 37.6562 57.7031 37.875 57.3281C38.0938 56.9427 38.3385 56.4896 38.6094 55.9688C38.8906 55.4479 39.1823 54.8906 39.4844 54.2969C39.7969 53.7031 40.0781 53.1458 40.3281 52.625C40.5781 52.0938 40.7812 51.6354 40.9375 51.25C41.0938 50.8646 41.1719 50.6146 41.1719 50.5C41.151 50.3646 41.099 50.2135 41.0156 50.0469C40.9427 49.901 40.8281 49.7344 40.6719 49.5469C40.526 49.3594 40.3125 49.151 40.0312 48.9219ZM44.875 55.0938C44.8125 54.7292 44.7552 54.4167 44.7031 54.1562C44.651 53.8854 44.6094 53.6615 44.5781 53.4844C44.5365 53.276 44.5052 53.0938 44.4844 52.9375C44.4531 52.7917 44.4167 52.6042 44.375 52.375C44.3333 52.1771 44.2812 51.9323 44.2188 51.6406C44.1667 51.3385 44.099 50.9792 44.0156 50.5625C43.4219 51.75 42.9583 52.6719 42.625 53.3281C42.3021 53.974 42.0677 54.4479 41.9219 54.75C41.7448 55.1042 41.6458 55.3125 41.625 55.375L44.875 55.0938ZM46.4375 48.2812C47.1354 48.3125 47.6771 48.3281 48.0625 48.3281H48.6406C48.8073 48.3281 49.0156 48.3229 49.2656 48.3125C49.474 48.3021 49.7396 48.2969 50.0625 48.2969C50.3854 48.2865 50.7708 48.2708 51.2188 48.25C51.0104 48.3958 50.8438 48.5365 50.7188 48.6719C50.5938 48.8073 50.4948 48.9271 50.4219 49.0312C50.3385 49.1562 50.2812 49.2708 50.25 49.375C50.1771 49.6458 50.1458 50.0156 50.1562 50.4844C50.1771 50.9427 50.224 51.4427 50.2969 51.9844C50.3698 52.5156 50.4583 53.0573 50.5625 53.6094C50.6667 54.1615 50.7708 54.6615 50.875 55.1094C50.9896 55.5573 51.0885 55.9271 51.1719 56.2188C51.2656 56.5 51.3333 56.6406 51.375 56.6406C51.4167 56.6406 51.4948 56.4896 51.6094 56.1875C51.7344 55.8854 51.875 55.5052 52.0312 55.0469C52.1875 54.5781 52.349 54.0729 52.5156 53.5312C52.6823 52.9792 52.8333 52.4583 52.9688 51.9688C53.1146 51.4688 53.2344 51.0417 53.3281 50.6875C53.4219 50.3229 53.4688 50.099 53.4688 50.0156C53.4583 49.901 53.4219 49.7812 53.3594 49.6562C53.3073 49.5417 53.2135 49.4115 53.0781 49.2656C52.9531 49.1094 52.776 48.9323 52.5469 48.7344C52.8698 48.724 53.1458 48.7135 53.375 48.7031C53.6146 48.6927 53.8177 48.6875 53.9844 48.6875H54.4688H56.9688C56.7083 48.8646 56.4844 49.0365 56.2969 49.2031C56.1198 49.3698 55.974 49.526 55.8594 49.6719C55.724 49.8385 55.6094 49.9948 55.5156 50.1406C55.4115 50.3594 55.2396 50.8333 55 51.5625C54.8958 51.875 54.776 52.2552 54.6406 52.7031C54.5052 53.151 54.3438 53.6875 54.1562 54.3125C53.9688 54.9375 53.7604 55.6615 53.5312 56.4844C53.3021 57.2969 53.0417 58.224 52.75 59.2656L50.5781 59.5469C50.3177 58.7344 50.0885 57.9948 49.8906 57.3281C49.7031 56.651 49.5365 56.0729 49.3906 55.5938C49.224 55.0312 49.0833 54.526 48.9688 54.0781C48.8125 53.5365 48.6771 52.9896 48.5625 52.4375C48.4583 51.875 48.3646 51.3698 48.2812 50.9219C48.2083 50.4635 48.1406 50.0833 48.0781 49.7812C48.0156 49.4792 47.9479 49.3021 47.875 49.25C47.8125 49.1979 47.7188 49.1302 47.5938 49.0469C47.4792 48.974 47.3333 48.8802 47.1562 48.7656C46.9688 48.6406 46.7292 48.4792 46.4375 48.2812ZM54.9688 48.8281C55.6979 48.849 56.3021 48.8646 56.7812 48.875C57.2708 48.875 57.6667 48.875 57.9688 48.875H58.7969H63.4531C63.474 49.0833 63.4896 49.2865 63.5 49.4844C63.5208 49.6719 63.5312 49.8385 63.5312 49.9844C63.5312 50.1615 63.526 50.3229 63.5156 50.4688C63.5052 50.6146 63.4896 50.7708 63.4688 50.9375C63.4479 51.0833 63.4271 51.2396 63.4062 51.4062C63.3854 51.5729 63.349 51.7448 63.2969 51.9219C63.151 51.3594 62.9531 50.9323 62.7031 50.6406C62.4635 50.349 62.2188 50.1354 61.9688 50C61.6771 49.8438 61.3698 49.7604 61.0469 49.75C60.6198 49.7708 60.2865 49.8073 60.0469 49.8594C59.8073 49.9115 59.6198 49.9844 59.4844 50.0781C59.349 50.1719 59.2448 50.2812 59.1719 50.4062C59.1094 50.5208 59.0417 50.651 58.9688 50.7969C58.9062 50.9219 58.849 51.1146 58.7969 51.375C58.7448 51.5938 58.6927 51.8906 58.6406 52.2656C58.599 52.6406 58.5521 53.125 58.5 53.7188C58.7812 53.6354 59.0052 53.5573 59.1719 53.4844C59.349 53.4115 59.4896 53.349 59.5938 53.2969C59.7083 53.2344 59.7917 53.1771 59.8438 53.125C59.8854 53.0625 59.9479 52.9479 60.0312 52.7812C60.0938 52.6354 60.1771 52.4375 60.2812 52.1875C60.3958 51.9375 60.5312 51.5938 60.6875 51.1562C60.7083 51.6354 60.7188 52.0365 60.7188 52.3594C60.7188 52.6719 60.724 52.9271 60.7344 53.125C60.7344 53.3542 60.7396 53.5365 60.75 53.6719V54.2656C60.75 54.4844 60.75 54.7812 60.75 55.1562C60.7604 55.5208 60.776 55.9844 60.7969 56.5469C60.6719 56.1615 60.5573 55.8594 60.4531 55.6406C60.3594 55.4115 60.276 55.2396 60.2031 55.125C60.1198 54.9896 60.0469 54.8958 59.9844 54.8438C59.9115 54.8229 59.8125 54.8021 59.6875 54.7812C59.5729 54.7708 59.4271 54.7656 59.25 54.7656C59.0833 54.7656 58.8698 54.7917 58.6094 54.8438C58.5781 55.4167 58.5729 55.8802 58.5938 56.2344C58.625 56.5781 58.6667 56.8438 58.7188 57.0312C58.7708 57.25 58.8333 57.4062 58.9062 57.5C59 57.5938 59.1875 57.6719 59.4688 57.7344C59.75 57.7865 60.0677 57.8073 60.4219 57.7969C60.7865 57.776 61.1562 57.7135 61.5312 57.6094C61.9062 57.5052 62.2396 57.3333 62.5312 57.0938C62.75 56.8958 62.9844 56.6458 63.2344 56.3438C63.4427 56.0833 63.6719 55.7552 63.9219 55.3594C64.1823 54.9635 64.4375 54.4844 64.6875 53.9219C64.6458 54.3906 64.6146 54.7812 64.5938 55.0938C64.5833 55.3958 64.5677 55.6406 64.5469 55.8281C64.526 56.0469 64.5104 56.2135 64.5 56.3281C64.5 56.4531 64.4844 56.6302 64.4531 56.8594C64.4323 57.0573 64.3958 57.3281 64.3438 57.6719C64.3021 58.0052 64.2448 58.4323 64.1719 58.9531C63.6823 58.9635 63.2188 58.974 62.7812 58.9844C62.3438 58.9844 61.9583 58.9896 61.625 59C61.2292 59.0104 60.8646 59.0208 60.5312 59.0312C60.1875 59.0312 59.8073 59.0469 59.3906 59.0781C59.026 59.099 58.5938 59.1302 58.0938 59.1719C57.6042 59.2135 57.0625 59.2708 56.4688 59.3438C56.5208 58.6354 56.5573 57.9688 56.5781 57.3438C56.6094 56.7083 56.6302 56.151 56.6406 55.6719C56.651 55.1094 56.651 54.5885 56.6406 54.1094C56.6927 52.9115 56.6719 51.9427 56.5781 51.2031C56.4844 50.4635 56.375 49.9896 56.25 49.7812C56.1875 49.7083 56.099 49.6198 55.9844 49.5156C55.8906 49.4323 55.7604 49.3333 55.5938 49.2188C55.4271 49.1042 55.2188 48.974 54.9688 48.8281ZM64.6094 48.0938C64.9427 48.1458 65.2448 48.1927 65.5156 48.2344C65.7865 48.2656 66.0208 48.2917 66.2188 48.3125C66.4479 48.3438 66.651 48.3698 66.8281 48.3906C67.0469 48.4219 67.375 48.3854 67.8125 48.2812C68.25 48.1667 68.7292 48.0625 69.25 47.9688C69.7812 47.8646 70.3229 47.8073 70.875 47.7969C71.4271 47.776 71.9323 47.875 72.3906 48.0938C72.849 48.3125 73.224 48.5312 73.5156 48.75C73.8073 48.9688 74.0365 49.2031 74.2031 49.4531C74.3802 49.6927 74.5052 49.9479 74.5781 50.2188C74.651 50.4896 74.6927 50.7865 74.7031 51.1094C74.6927 51.5885 74.5781 52.0521 74.3594 52.5C74.2656 52.6875 74.1406 52.8854 73.9844 53.0938C73.8385 53.2917 73.6562 53.4844 73.4375 53.6719C73.2188 53.8594 72.9583 54.0365 72.6562 54.2031C72.3646 54.3698 72.0208 54.5156 71.625 54.6406C72.0104 54.7552 72.3281 54.8906 72.5781 55.0469C72.8385 55.2031 73.0469 55.349 73.2031 55.4844C73.3906 55.651 73.5312 55.8125 73.625 55.9688C73.7396 56.1875 73.8177 56.375 73.8594 56.5312C73.901 56.6875 73.9271 56.8385 73.9375 56.9844C73.9583 57.1198 73.9844 57.2604 74.0156 57.4062C74.0469 57.5521 74.1146 57.7188 74.2188 57.9062C74.3021 58.0521 74.401 58.2031 74.5156 58.3594C74.6198 58.4948 74.7396 58.6406 74.875 58.7969C75.0208 58.9531 75.1979 59.1042 75.4062 59.25C75.1146 59.2604 74.8438 59.2656 74.5938 59.2656C74.3542 59.2656 74.1458 59.2656 73.9688 59.2656C73.7604 59.2656 73.5625 59.2604 73.375 59.25C73.1875 59.2396 72.9531 59.2344 72.6719 59.2344C72.4323 59.2344 72.125 59.2344 71.75 59.2344C71.3854 59.2344 70.9427 59.2396 70.4219 59.25C70.651 59.0729 70.8385 58.8958 70.9844 58.7188C71.1302 58.5417 71.2448 58.3802 71.3281 58.2344C71.4219 58.0677 71.4896 57.9062 71.5312 57.75C71.5833 57.4688 71.5885 57.1771 71.5469 56.875C71.5156 56.6146 71.4323 56.3281 71.2969 56.0156C71.1615 55.6927 70.9427 55.3698 70.6406 55.0469C70.3385 55.099 70.0833 55.1406 69.875 55.1719C69.6771 55.1927 69.5052 55.2135 69.3594 55.2344C69.1927 55.2552 69.0573 55.2708 68.9531 55.2812C68.8594 55.2917 68.7552 55.3021 68.6406 55.3125C68.5469 55.3229 68.4427 55.3385 68.3281 55.3594C68.224 55.3698 68.125 55.3854 68.0312 55.4062C68.0104 55.8542 68.0104 56.2448 68.0312 56.5781C68.0521 56.901 68.0781 57.1719 68.1094 57.3906C68.151 57.651 68.1979 57.875 68.25 58.0625C68.3021 58.25 68.375 58.4323 68.4688 58.6094C68.5417 58.7552 68.6354 58.9115 68.75 59.0781C68.8646 59.2344 68.9948 59.3646 69.1406 59.4688C68.8698 59.4688 68.6094 59.4688 68.3594 59.4688C68.1198 59.4688 67.901 59.4635 67.7031 59.4531C67.474 59.4531 67.2552 59.4479 67.0469 59.4375C66.8385 59.4271 66.6042 59.4219 66.3438 59.4219C66.125 59.4219 65.8646 59.4219 65.5625 59.4219C65.2708 59.4219 64.9531 59.4271 64.6094 59.4375C64.8802 59.1562 65.0938 58.9167 65.25 58.7188C65.4062 58.5208 65.526 58.3542 65.6094 58.2188C65.7031 58.0729 65.7604 57.9479 65.7812 57.8438C65.8021 57.6771 65.8177 57.3802 65.8281 56.9531C65.849 56.5156 65.8646 56.0156 65.875 55.4531C65.8854 54.8906 65.8906 54.3021 65.8906 53.6875C65.8906 53.0729 65.8854 52.5 65.875 51.9688C65.8646 51.4271 65.8542 50.9635 65.8438 50.5781C65.8333 50.1927 65.8229 49.9479 65.8125 49.8438C65.7812 49.6562 65.7135 49.4688 65.6094 49.2812C65.526 49.1146 65.4062 48.9271 65.25 48.7188C65.0938 48.5104 64.8802 48.3021 64.6094 48.0938ZM70.5156 53.5938C70.6198 53.5312 70.7083 53.4688 70.7812 53.4062C70.8542 53.3438 70.9167 53.2448 70.9688 53.1094C71.0208 52.9635 71.0625 52.7604 71.0938 52.5C71.1354 52.2396 71.1823 51.8854 71.2344 51.4375C71.276 50.9896 71.2448 50.6198 71.1406 50.3281C71.0469 50.0365 70.9167 49.8073 70.75 49.6406C70.5938 49.4635 70.4167 49.3438 70.2188 49.2812C70.0312 49.2083 69.8646 49.1719 69.7188 49.1719C69.4271 49.1719 69.1406 49.2604 68.8594 49.4375C68.5781 49.6146 68.3646 49.8542 68.2188 50.1562C68.1667 50.2917 68.1198 50.5156 68.0781 50.8281C68.0469 51.099 68.026 51.474 68.0156 51.9531C68.0052 52.4323 68.0208 53.0625 68.0625 53.8438C68.4583 53.9062 68.8073 53.9323 69.1094 53.9219C69.4115 53.901 69.6667 53.8646 69.875 53.8125C70.125 53.7604 70.3385 53.6875 70.5156 53.5938Z" fill="#233607"/>
<defs>
<linearGradient id="paint0_linear_28_2590" x1="24" y1="0" x2="24" y2="63" gradientUnits="userSpaceOnUse">
<stop stop-color="#FE992D"/>
<stop offset="0.87" stop-color="#233607"/>
</linearGradient>
</defs>
</svg>
