<svg width="209" height="180" viewBox="0 0 209 180" fill="none" xmlns="http://www.w3.org/2000/svg">
<g clip-path="url(#clip0_576_2048)">
<path d="M208.303 148.794C209.091 146.958 118.664 88.0454 118.664 88.0454C107.343 80.8373 101.389 80.7238 90.1943 88.0454C90.1943 88.0454 -0.100619 146.91 0.659373 148.721L0.641113 148.735C0.650446 148.75 0.665459 148.761 0.678038 148.775C1.44368 150.576 2.55759 152.252 3.97242 153.732C4.5701 154.357 5.29033 154.881 5.98297 155.425L5.94929 155.448C6.00447 155.49 6.07791 155.51 6.1331 155.552C9.06878 157.811 12.771 159.275 16.8838 159.693C16.9483 159.699 17.0002 159.728 17.0647 159.735H17.313C17.9383 159.786 18.5328 159.916 19.1731 159.916H189.886C198.292 159.916 205.414 155.355 208.243 148.961C208.276 148.913 208.328 148.879 208.359 148.83L208.303 148.794Z" fill="#568256"/>
<path d="M104.554 81.2844L1.11865 148.219V53.3952C1.11865 44.1527 9.80074 36.6616 20.5128 36.6616H188.596C199.308 36.6616 207.99 44.1527 207.99 53.3952V148.219L104.554 81.2844Z" fill="#CCD9CC"/>
<path d="M2.32471 47.5768L90.6367 107.426C101.783 114.522 107.645 114.634 118.668 107.426L206.841 47.6717C205.311 45.2791 203.021 43.3889 200.402 41.8817L201.615 41.0618C198.655 38.7368 194.871 37.2296 190.671 36.8403L18.4436 36.8456C14.2553 37.2296 10.4655 38.7421 7.51156 41.0618L8.71545 41.8716C6.12669 43.3578 3.85767 45.2154 2.32471 47.5768Z" fill="#EDECE6"/>
<path d="M2.29607 47.7022C1.52066 49.5104 90.5541 107.515 90.5541 107.515C101.7 114.611 107.563 114.723 118.585 107.515C118.585 107.515 207.489 49.5573 206.74 47.7739L206.759 47.761C206.75 47.7452 206.735 47.7351 206.722 47.7207C205.969 45.9476 204.872 44.2975 203.479 42.8407C202.89 42.2249 202.181 41.7095 201.5 41.1732L201.533 41.1511C201.478 41.1095 201.406 41.0899 201.352 41.0482C198.461 38.8237 194.816 37.3827 190.767 36.9713C190.704 36.9647 190.652 36.9363 190.589 36.9297H190.345C189.729 36.8789 189.144 36.7515 188.513 36.7515H20.4304C12.1536 36.7515 5.14127 41.2425 2.35653 47.5376C2.32326 47.5845 2.27213 47.6185 2.2417 47.6665L2.29607 47.7022Z" fill="#233603"/>
<path d="M85 75.125L90 70.125L100 80.125L120 60.125L125 65.125L100 90.125L85 75.125Z" stroke="#FF9A19" stroke-width="4" stroke-linecap="round" stroke-linejoin="round"/>
</g>
<defs>
<clipPath id="clip0_576_2048">
<rect width="207.75" height="179.25" fill="white" transform="translate(0.625)"/>
</clipPath>
</defs>
</svg>
