<svg width="47" height="43" viewBox="0 0 47 43" fill="none" xmlns="http://www.w3.org/2000/svg">
<path d="M42.7024 17.9907H41.125V17.9163H23.5V25.083H34.5675C32.9528 29.2549 28.6141 32.2497 23.5 32.2497C17.011 32.2497 11.75 27.4364 11.75 21.4997C11.75 15.563 17.011 10.7497 23.5 10.7497C26.4952 10.7497 29.2203 11.7835 31.2951 13.4721L36.8342 8.40438C33.3367 5.42215 28.6582 3.58301 23.5 3.58301C12.6851 3.58301 3.91663 11.6052 3.91663 21.4997C3.91663 31.3942 12.6851 39.4163 23.5 39.4163C34.3149 39.4163 43.0833 31.3942 43.0833 21.4997C43.0833 20.2984 42.9482 19.1257 42.7024 17.9907Z" fill="#FFC107"/>
<path d="M6.17468 13.1604L12.6088 17.4774C14.3497 13.5339 18.566 10.7497 23.5001 10.7497C26.4953 10.7497 29.2204 11.7835 31.2952 13.4721L36.8344 8.40438C33.3368 5.42215 28.6583 3.58301 23.5001 3.58301C15.9781 3.58301 9.45489 7.46824 6.17468 13.1604Z" fill="#FF3D00"/>
<path d="M23.5 39.4168C28.5584 39.4168 33.1546 37.6457 36.6296 34.7656L30.5686 30.0733C28.5364 31.4872 26.0531 32.252 23.5 32.2501C18.4064 32.2501 14.0814 29.2786 12.452 25.1318L6.06592 29.6334C9.30696 35.4357 15.8889 39.4168 23.5 39.4168Z" fill="#4CAF50"/>
<path d="M42.7024 17.9913H41.125V17.917H23.5V25.0837H34.5675C33.7952 27.0692 32.4039 28.8042 30.5657 30.0743L30.5686 30.0726L36.6296 34.7649C36.2008 35.1215 43.0833 30.4587 43.0833 21.5003C43.0833 20.299 42.9482 19.1264 42.7024 17.9913Z" fill="#1976D2"/>
</svg>
