<svg width="528" height="180" viewBox="0 0 528 180" fill="none" xmlns="http://www.w3.org/2000/svg">
<path d="M11.35 38.8H95.8V62.8H11.35V38.8ZM38.5 68.8H68.5V142H38.5V68.8Z" fill="#233603"/>
<path d="M106.908 38.8H136.908V142H106.908V38.8ZM164.808 102.25H143.208V78.25H164.808V38.8H194.808V142H164.808V102.25ZM317.26 43V38.8H347.26L405.16 137.65V142H375.31L317.26 43ZM376.66 76.45V38.8H405.16V125.2L376.66 76.45ZM317.26 55.45L345.76 104.2V142H317.26V55.45Z" fill="white"/>
<path d="M237.681 38.8H240.231L252.081 79.9L234.831 142H204.831L237.681 38.8ZM271.431 123.7H246.381L252.681 100.6H264.681L246.981 38.8H274.431L307.281 142H276.681L271.431 123.7Z" fill="#9A0A0D"/>
<path d="M424.633 38.8H454.633V142H424.633V38.8ZM460.933 105.85V73.6L484.633 38.8H517.333L481.783 87.4L517.783 142H484.183L460.933 105.85Z" fill="#FF9A19"/>
</svg>
