<svg width="322" height="180" viewBox="0 0 322 180" fill="none" xmlns="http://www.w3.org/2000/svg">
<path d="M42.4 107.95L41.05 104.95L37.15 97.3L33.4 89.35C33 88.65 32.5 87.6 31.9 86.2L25.75 73.45L9.25 38.8H39.85L72.4 108.1V142H42.4V107.95ZM61.75 70.75L75.7 38.8H105.7L94 63.1L89.05 73.3L79.6 92.95L75.85 100.75L61.75 70.75ZM259.211 143.2C248.711 143.2 240.611 142.35 234.911 140.65C229.211 138.95 225.011 136.2 222.311 132.4C219.811 128.9 218.261 124.45 217.661 119.05C217.061 113.65 216.761 105.6 216.761 94.9V38.8H246.761V100.9C246.761 104.6 246.861 108.15 247.061 111.55C247.261 114.25 247.711 116.2 248.411 117.4C249.111 118.6 250.311 119.35 252.011 119.65C253.511 120.05 255.911 120.25 259.211 120.25H262.661C263.461 120.25 264.361 120.15 265.361 119.95V143.05C264.661 143.15 263.661 143.2 262.361 143.2H259.211ZM271.661 38.8H301.661V94.9C301.661 104.7 301.461 112.1 301.061 117.1C300.661 122.1 299.561 126.3 297.761 129.7C295.761 133.6 292.711 136.6 288.611 138.7C284.511 140.8 278.861 142.15 271.661 142.75V38.8Z" fill="#233603"/>
<path d="M169.775 90.4C169.775 81.7 169.725 76 169.625 73.3C169.425 69.2 168.875 66.25 167.975 64.45C167.075 62.55 165.625 61.4 163.625 61C161.625 60.7 158.775 60.55 155.075 60.55C150.775 60.55 147.975 60.75 146.675 61.15V37.75C147.575 37.65 148.925 37.6 150.725 37.6H155.075C166.275 37.6 174.925 38.5 181.025 40.3C187.225 42 191.725 44.85 194.525 48.85C197.125 52.55 198.725 57.4 199.325 63.4C200.025 69.4 200.375 78.4 200.375 90.4C200.375 100.9 200.125 109 199.625 114.7C199.225 120.3 198.125 124.95 196.325 128.65C194.325 132.85 191.225 136.05 187.025 138.25C182.925 140.45 177.175 141.9 169.775 142.6V90.4ZM155.075 143.2C140.475 143.2 129.975 141.6 123.575 138.4C120.275 136.8 117.675 134.65 115.775 131.95C113.875 129.25 112.475 125.9 111.575 121.9C110.775 118.4 110.275 114.4 110.075 109.9C109.875 105.3 109.775 98.8 109.775 90.4C109.775 79.9 109.975 71.85 110.375 66.25C110.875 60.65 112.025 55.95 113.825 52.15C115.825 48.05 118.875 44.9 122.975 42.7C127.075 40.5 132.875 39 140.375 38.2V90.4C140.375 96.3 140.475 101.95 140.675 107.35C140.875 111.45 141.375 114.45 142.175 116.35C143.075 118.25 144.525 119.35 146.525 119.65C148.225 120.05 151.075 120.25 155.075 120.25C159.175 120.25 161.975 120.1 163.475 119.8V143.05C162.575 143.15 161.225 143.2 159.425 143.2H155.075Z" fill="white"/>
</svg>
